<svg xmlns="http://www.w3.org/2000/svg" width="17" height="17" viewBox="0 0 17 17" fill="none">
<path d="M12.4646 9.56763C12.4646 9.00857 12.363 8.60197 12.1597 8.34785C11.9564 8.06832 11.5752 7.92856 11.0161 7.92856C10.33 7.92856 9.84717 8.13185 9.56763 8.53844C9.2881 8.94504 9.14833 9.51681 9.14833 10.2538V15.819C9.14833 15.9461 9.11022 16.0477 9.03398 16.1239C8.95774 16.2002 8.8561 16.2383 8.72904 16.2383H5.83206C5.73041 16.2383 5.62877 16.2002 5.52712 16.1239C5.45088 16.0477 5.41276 15.9461 5.41276 15.819V5.52712C5.41276 5.42547 5.45088 5.33653 5.52712 5.26029C5.62877 5.15864 5.73041 5.10782 5.83206 5.10782H8.6528C8.75445 5.10782 8.83068 5.13323 8.88151 5.18406C8.95774 5.23488 9.00857 5.31112 9.03398 5.41276C9.03398 5.51441 9.03398 5.57794 9.03398 5.60335C9.05939 5.65418 9.0721 5.74312 9.0721 5.87018C9.78363 5.18406 10.7493 4.84099 11.9691 4.84099C13.3159 4.84099 14.3705 5.18406 15.1329 5.87018C15.8952 6.55631 16.2764 7.56008 16.2764 8.88151V15.819C16.2764 15.9461 16.2256 16.0477 16.1239 16.1239C16.0477 16.2002 15.9588 16.2383 15.8571 16.2383H12.8839C12.7823 16.2383 12.6806 16.2002 12.579 16.1239C12.5027 16.0477 12.4646 15.9461 12.4646 15.819V9.56763ZM3.92616 1.98214C3.92616 2.51579 3.73557 2.98591 3.35439 3.39251C2.97321 3.77369 2.50309 3.96428 1.94402 3.96428C1.41037 3.96428 0.952951 3.77369 0.571771 3.39251C0.19059 2.98591 0 2.51579 0 1.98214C0 1.42307 0.19059 0.952951 0.571771 0.571771C0.952951 0.19059 1.41037 0 1.94402 0C2.50309 0 2.97321 0.19059 3.35439 0.571771C3.73557 0.952951 3.92616 1.42307 3.92616 1.98214ZM3.84992 5.52712V15.819C3.84992 15.9461 3.7991 16.0477 3.69745 16.1239C3.62122 16.2002 3.53227 16.2383 3.43063 16.2383H0.533653C0.406593 16.2383 0.304944 16.2002 0.228708 16.1239C0.152472 16.0477 0.114354 15.9461 0.114354 15.819V5.52712C0.114354 5.42547 0.152472 5.33653 0.228708 5.26029C0.304944 5.15864 0.406593 5.10782 0.533653 5.10782H3.43063C3.53227 5.10782 3.62122 5.15864 3.69745 5.26029C3.7991 5.33653 3.84992 5.42547 3.84992 5.52712Z" fill="white"/>
</svg>