<svg xmlns="http://www.w3.org/2000/svg" width="24" height="17" viewBox="0 0 24 17" fill="none">
<path fill-rule="evenodd" clip-rule="evenodd" d="M21.3766 0.50753C22.4093 0.786795 23.2225 1.60968 23.4986 2.65456C24.0001 4.54844 24 8.5001 24 8.5001C24 8.5001 24 12.4515 23.4985 14.3455C23.2224 15.3904 22.4092 16.2132 21.3765 16.4927C19.505 17 11.9999 17 11.9999 17C11.9999 17 4.4949 17 2.6233 16.4927C1.59065 16.2131 0.777275 15.3904 0.501445 14.3454C0 12.4514 0 8.5 0 8.5C0 8.5 0 4.54844 0.501445 2.65456C0.777275 1.60968 1.59065 0.786795 2.6234 0.50753C4.495 0 12 0 12 0C12 0 19.5051 0 21.3766 0.50753ZM15.8182 8.50021L9.54545 12.0877V4.91233L15.8182 8.50021Z" fill="white"/>
</svg>