<svg xmlns="http://www.w3.org/2000/svg" width="23" height="23" viewBox="0 0 23 23" fill="none">
<path fill-rule="evenodd" clip-rule="evenodd" d="M11.1001 0C8.0855 0 7.70809 0.0129501 6.52408 0.0666006C2.4929 0.251602 0.252527 2.48827 0.0675256 6.52316C0.0129501 7.70809 0 8.0855 0 11.1001C0 14.1147 0.0129501 14.493 0.0666006 15.677C0.251602 19.7082 2.48827 21.9486 6.52316 22.1336C7.70809 22.1872 8.0855 22.2002 11.1001 22.2002C14.1147 22.2002 14.493 22.1872 15.677 22.1336C19.7045 21.9486 21.9504 19.7119 22.1327 15.677C22.1872 14.493 22.2002 14.1147 22.2002 11.1001C22.2002 8.0855 22.1872 7.70809 22.1336 6.52408C21.9523 2.4966 19.7128 0.252527 15.678 0.0675256C14.493 0.0129501 14.1147 0 11.1001 0ZM11.0996 2.00061C14.0634 2.00061 14.4149 2.01171 15.5859 2.06536C18.5941 2.20226 19.9991 3.62955 20.136 6.61548C20.1897 7.78561 20.1999 8.13711 20.1999 11.1008C20.1999 14.0655 20.1888 14.4161 20.136 15.5862C19.9982 18.5694 18.5968 19.9994 15.5859 20.1363C14.4149 20.19 14.0652 20.2011 11.0996 20.2011C8.13592 20.2011 7.78441 20.19 6.61428 20.1363C3.59875 19.9985 2.20106 18.5647 2.06416 15.5853C2.01051 14.4151 1.99941 14.0646 1.99941 11.0999C1.99941 8.13619 2.01144 7.78561 2.06416 6.61455C2.20199 3.62955 3.60338 2.20134 6.61428 2.06444C7.78534 2.01171 8.13592 2.00061 11.0996 2.00061ZM5.39966 11.0996C5.39966 7.95176 7.95176 5.39966 11.0996 5.39966C14.2474 5.39966 16.7995 7.95176 16.7995 11.0996C16.7995 14.2483 14.2474 16.8004 11.0996 16.8004C7.95176 16.8004 5.39966 14.2474 5.39966 11.0996ZM11.0997 14.7997C9.05636 14.7997 7.39967 13.144 7.39967 11.0997C7.39967 9.05635 9.05636 7.39966 11.0997 7.39966C13.143 7.39966 14.7997 9.05635 14.7997 11.0997C14.7997 13.144 13.143 14.7997 11.0997 14.7997ZM15.6921 5.17479C15.6921 4.4394 16.2888 3.84277 17.0251 3.84277C17.7605 3.84277 18.3562 4.4394 18.3562 5.17479C18.3562 5.91017 17.7605 6.5068 17.0251 6.5068C16.2888 6.5068 15.6921 5.91017 15.6921 5.17479Z" fill="white"/>
</svg>